<?xml version="1.0" encoding="utf-8"?>
<!-- Svg Vector Icons : http://www.onlinewebfonts.com/icon -->
<!DOCTYPE svg PUBLIC "-//W3C//DTD SVG 1.1//EN" "http://www.w3.org/Graphics/SVG/1.1/DTD/svg11.dtd">
<svg version="1.1" xmlns="http://www.w3.org/2000/svg" xmlns:xlink="http://www.w3.org/1999/xlink" x="0px" y="0px" viewBox="0 0 256 256" enable-background="new 0 0 256 256" xml:space="preserve">
<metadata> Svg Vector Icons : http://www.onlinewebfonts.com/icon </metadata>
<g><g><path fill="#000000" d="M135.9,190.6c-2.6,0.5-5.3,0.8-8,1c-36.3,2-67.1-26.4-69-62.9c-1-17.8,5-34.8,16.7-48c11.7-13.2,27.7-20.9,45.2-21.8c1.2-0.1,2.3-0.1,3.5-0.1c34.8,0,63.6,27.7,65.5,63c0.2,4.6,0,9.1-0.7,13.5l23.3,22.6c1.8-5.1,3.3-10.3,4.2-15.6l22-4.6l-0.3-6.2l-0.8-15.6l-0.3-6.2l-20.7-2.1c-0.9-4.8-2.1-9.4-3.6-13.9l16.7-14.9l-3.3-5.2l-8.5-13.1l-3.4-5.2l-18.6,8.4c-3.2-3.8-6.6-7.2-10.3-10.5l6.8-20.8l-5.5-2.8l-13.9-7.1l-5.5-2.8l-11.6,16.1c-4.7-1.7-9.6-2.9-14.6-3.9l-4.4-21.1l-6.2,0.3L115,12l-6.2,0.3l-2,19.7c-5,0.9-9.9,2.2-14.6,3.9L78,20l-5.2,3.4l-13.1,8.5l-5.2,3.4l8.3,18.4c-2.9,2.6-5.8,5.3-8.4,8.2c-0.7,0.7-1.3,1.5-1.9,2.3l-21-6.9l-2.8,5.5l-7.1,13.9l-2.8,5.5l16.7,12c-1.5,4.6-2.7,9.2-3.5,13.9L10,112.7l0.3,6.2l0.8,15.6l0.3,6.1l20.7,2.1c0.9,4.8,2.1,9.4,3.6,13.9l-16.7,14.9l3.3,5.2l8.5,13.1l3.4,5.2l18.6-8.4c3.2,3.8,6.6,7.2,10.4,10.4L56.4,218l5.5,2.8l13.9,7.1l5.5,2.8L93,214.5c4.7,1.7,9.5,3,14.5,3.9l4.4,21.1l6.2-0.3l15.6-0.8l6.1-0.4l2-19.7c5.6-1.1,11.1-2.7,16.4-4.7L135.9,190.6z"/><path fill="#000000" d="M245.9,216c0.6-3.7-1.5-8.5-3.6-10.6c-24.6-23.8-49.1-47.6-73.6-71.4c3.5-14.9-0.5-31.1-12.1-42.7c-13.3-13.3-32.9-16.7-49.3-10l25.2,25.2c2.1,2.1,2.1,5.6,0,7.7L115,131.6c-2.1,2.1-5.6,2.1-7.7,0l-25.2-25.2c-6.6,16.4-3.3,36,10,49.3c11.6,11.6,27.8,15.6,42.7,12.1c23.8,24.5,47.6,49.1,71.4,73.6c2.1,2.1,6.9,4.2,10.6,3.6C231.4,242.8,243.6,230.6,245.9,216z"/></g></g>
</svg>